<svg xmlns="http://www.w3.org/2000/svg" viewBox="0 0 512 512">
  <rect width="512" height="512" rx="112" fill="#ffffff"/>
  <circle cx="256" cy="256" r="186" fill="#ecfdf5"/>
  <path d="M342.6 318.2c-18.4 18.4-38.4 20.8-64.2 11.6-34.8-12.4-64.2-41.8-76.6-76.6-9.2-25.8-6.8-45.8 11.6-64.2l19.8-19.8c7.2-7.2 19.2-6.4 25.4 1.8l25.4 33.2c4.8 6.4 4.4 15.4-1.2 21l-13.8 13.8c9.2 18.8 24.2 33.8 43 43l13.8-13.8c5.6-5.6 14.6-6 21-1.2l33.2 25.4c8.2 6.2 9 18.2 1.8 25.4l-39.2 40.4Z" fill="#10b981"/>
  <path d="M166 148h180c10 0 18 8 18 18v180c0 10-8 18-18 18H166c-10 0-18-8-18-18V166c0-10 8-18 18-18Z" fill="none" stroke="#10b981" stroke-width="24" opacity=".28"/>
</svg>
